<?xml version="1.0" encoding="UTF-8"?>
<svg version="1.1" xmlns="http://www.w3.org/2000/svg" width="500" height="500">
<path d="M0 0 C80.52 0 161.04 0 244 0 C244 16.47364458 244 16.47364458 242.875 22.75 C242.74303223 23.49822021 242.61106445 24.24644043 242.47509766 25.01733398 C238.5470495 45.70980766 229.52434721 63.94653556 216 80 C215.25878906 80.89332031 214.51757812 81.78664063 213.75390625 82.70703125 C195.0403362 104.42277831 166.4277674 119.49499595 137.9375 122.75390625 C100.41407486 125.09912032 67.44791245 116.35730639 38.70214844 91.5793457 C18.75112922 73.72334912 5.73573336 48.98504453 1.125 22.75 C1.00471436 22.07864014 0.88442871 21.40728027 0.76049805 20.71557617 C-0.32407939 13.68304501 0 7.33408075 0 0 Z M3 2 C2.96129552 13.54225713 2.96129552 13.54225713 4.5625 24.6875 C4.73813477 25.53199707 4.91376953 26.37649414 5.09472656 27.24658203 C11.87511803 57.78113485 30.80663446 84.63942307 57.03515625 101.56640625 C83.43060351 118.0085304 115.67132872 124.77750964 146.27734375 117.97265625 C179.31967792 109.33934963 207.14875642 91.70766655 225 62 C235.90432946 43.09220142 241 23.8326339 241 2 C162.46 2 83.92 2 3 2 Z " fill="#020202" transform="translate(128,249)"/>
<path d="M0 0 C0.99 0 1.98 0 3 0 C8.98008899 19.13628478 6.38335111 39.65820146 -1 58 C-1.90596564 60.47612897 -2.80243559 62.95399257 -3.6875 65.4375 C-4.10386719 66.59121094 -4.52023437 67.74492187 -4.94921875 68.93359375 C-9.02290665 80.82149337 -7.84168063 93.50652714 -3 105 C-1.51372884 107.98366155 0.0452351 110.88224926 1.73046875 113.7578125 C3 116 3 116 4 119 C2.515 119.495 2.515 119.495 1 120 C-8.3809072 104.81294878 -13.74943631 90.3650324 -10.3046875 72.3671875 C-8.79976784 66.81542505 -6.81658434 61.49152309 -4.72363281 56.14257812 C2.54480262 37.48843203 3.13136456 19.71082155 0 0 Z " fill="#030303" transform="translate(339,101)"/>
<path d="M0 0 C0.99 0 1.98 0 3 0 C8.06667116 21.05671221 5.427569 41.83089418 -2.8425293 61.54711914 C-8.38883584 74.9606537 -9.77402258 88.09073552 -4.75 101.875 C-2.87518333 106.3756564 -0.73075649 110.40386328 2.1796875 114.31640625 C3 116 3 116 2.6328125 118.21484375 C2.42398438 118.80394531 2.21515625 119.39304687 2 120 C-7.91816184 110.94062637 -11.23283165 97.52975665 -11.95703125 84.53515625 C-12.07546443 74.79133588 -8.8244522 66.26484382 -5.52734375 57.2421875 C-0.55810798 43.65205102 -0.55810798 43.65205102 1.1328125 29.39453125 C1.13410156 28.32783203 1.13539063 27.26113281 1.13671875 26.16210938 C1.13285156 25.05673828 1.12898437 23.95136719 1.125 22.8125 C1.12886719 21.72646484 1.13273438 20.64042969 1.13671875 19.52148438 C1.12882853 12.95287641 0.80457376 6.51997985 0 0 Z " fill="#030303" transform="translate(165,101)"/>
<path d="M0 0 C0.99 0 1.98 0 3 0 C8.23542128 14.52129193 5.97508812 29.05238825 -0.38330078 42.74560547 C-1.91406205 45.91006162 -3.48640931 49.05026331 -5.10791016 52.16918945 C-8.10122039 58.31227468 -8.05199482 66.03848808 -6.31640625 72.57421875 C-4.30866918 77.34780108 -1.47231556 81.30310553 1.828125 85.2734375 C3 87 3 87 3 90 C-3.10554336 87.45043244 -7.22458974 81.26589086 -9.9375 75.375 C-13.12105981 65.42637558 -11.59830719 55.11249901 -7 46 C-5.95353185 43.75222913 -4.91209041 41.50211299 -3.875 39.25 C-3.37742188 38.20328125 -2.87984375 37.1565625 -2.3671875 36.078125 C2.9601288 24.08405288 2.30497453 12.70593399 0 0 Z " fill="#030303" transform="translate(253,131)"/>
<path d="M0 0 C0.33 0.66 0.66 1.32 1 2 C1.66 2 2.32 2 3 2 C3 4.31 3 6.62 3 9 C2.01 9 1.02 9 0 9 C0 6.03 0 3.06 0 0 Z " fill="#090909" transform="translate(128,249)"/>
</svg>
